<svg version="1.1" id="Layer_1" xmlns="http://www.w3.org/2000/svg" xmlns:xlink="http://www.w3.org/1999/xlink" x="0px" y="0px"
	 width="100%" viewBox="0 0 220 220" enable-background="new 0 0 220 220" xml:space="preserve">
<path fill="#0D0505" opacity="1.000000" stroke="none" 
	d="
M1.000000,118.000000 
	C1.000000,116.611107 1.000000,115.222221 1.356628,113.254730 
	C4.287642,101.892654 6.770553,91.085632 9.534185,80.350876 
	C9.952880,78.724556 11.676929,77.434296 12.797186,75.988586 
	C13.885872,77.396553 15.409159,78.649979 15.975825,80.243568 
	C17.292500,83.946350 19.654627,86.220901 23.510288,86.459923 
	C27.604805,86.713760 30.679083,84.708122 31.833418,80.760796 
	C32.889004,77.151154 33.143517,73.310577 34.141399,69.679039 
	C34.527874,68.272575 35.986778,67.160789 37.165527,65.981018 
	C37.373940,66.047279 37.810051,66.013931 38.043915,66.348785 
	C39.536545,74.980568 36.828468,82.174355 32.627224,87.893120 
	C40.407730,87.623192 48.701019,87.335480 57.302170,87.241615 
	C71.286789,91.025719 80.901512,99.102509 85.297615,113.153427 
	C87.272957,105.471336 89.249413,98.221664 89.884064,90.856369 
	C90.688309,81.522812 87.683548,73.962128 83.315399,70.868248 
	C82.959648,72.639046 82.740547,74.465996 82.212410,76.198753 
	C81.238487,79.394073 78.856339,80.615585 75.661903,80.227509 
	C71.973038,79.779366 70.978745,76.962669 70.365181,73.886887 
	C68.566261,64.868988 64.723976,56.923077 57.942986,50.163303 
	C50.967129,44.307194 44.126694,38.733845 37.286259,33.160492 
	C37.414131,41.020836 38.813190,47.657917 39.530144,54.367882 
	C39.795444,56.850796 38.457249,59.505047 37.512783,61.936768 
	C36.311893,57.797634 35.448574,53.802887 34.596588,49.393379 
	C33.785816,45.650383 32.963715,42.322155 32.142124,38.598618 
	C31.551550,34.843506 30.960466,31.483706 30.675446,27.974186 
	C33.288761,28.289696 35.596008,28.754927 38.098602,29.497688 
	C42.919960,32.706673 47.545979,35.638126 52.399254,38.821838 
	C56.154190,42.381233 59.681866,45.688370 63.324402,49.304768 
	C66.050819,53.819992 69.048027,57.842155 71.164963,62.283863 
	C73.262306,66.684471 74.472183,71.508041 76.071312,76.146103 
	C76.678108,76.072723 77.284912,75.999352 77.891708,75.925972 
	C78.209450,73.111816 78.401871,70.275681 78.890060,67.491402 
	C79.202682,65.708382 79.951805,64.001884 80.505249,62.261082 
	C82.137489,63.169060 83.983284,63.841255 85.331680,65.062607 
	C86.337753,65.973892 86.701073,67.594772 87.350632,68.899651 
	C87.963280,68.418198 88.575935,67.936752 89.188583,67.455299 
	C88.841431,65.568130 88.508636,63.678181 88.144196,61.794353 
	C87.334961,57.611423 86.509850,53.431561 85.967377,49.048782 
	C88.433647,49.032597 90.623756,49.218082 93.048332,49.638615 
	C98.716927,53.293884 104.151070,56.714108 109.788132,60.418324 
	C116.159813,66.612045 122.328575,72.521774 128.233231,78.178490 
	C130.784592,73.787613 133.400940,68.882767 136.469818,64.279625 
	C137.259598,63.094975 139.684540,62.086575 140.966400,62.435780 
	C141.974548,62.710423 142.722855,65.142944 142.979309,66.715935 
	C143.475388,69.758644 143.543289,72.871155 143.788651,75.954742 
	C144.459015,75.998489 145.129379,76.042244 145.799744,76.085999 
	C147.576630,70.744461 149.353516,65.402924 151.387497,59.838558 
	C154.182434,55.775143 156.720276,51.934551 159.544373,47.934376 
	C163.150986,44.623322 166.471359,41.471851 170.088394,38.209938 
	C175.399643,34.795570 180.414200,31.491644 185.749542,28.127182 
	C187.825165,28.107306 189.580002,28.147966 191.402344,28.569088 
	C190.582352,33.296196 189.694870,37.642845 188.589996,42.315483 
	C187.819260,47.425865 187.265915,52.210262 186.579178,57.315186 
	C185.658401,59.117893 184.871033,60.600075 183.735077,61.872993 
	C183.052307,58.177872 182.145081,54.630215 182.512833,51.220051 
	C183.126450,45.529778 184.555801,39.927475 185.828369,33.318741 
	C176.973312,38.525955 169.222122,43.698990 162.809372,51.214592 
	C156.521271,58.140606 152.748108,65.966187 151.135773,74.834557 
	C150.520462,78.218925 148.662399,80.268250 145.115219,80.282089 
	C141.518829,80.296127 139.768417,78.093681 139.107513,74.792862 
	C138.841324,73.463440 138.570267,72.134995 138.051895,69.572617 
	C133.440109,77.267662 129.891479,83.675529 134.034012,91.544479 
	C134.946869,93.278526 135.188843,95.352623 135.923538,97.196922 
	C136.837204,99.490532 137.941696,101.708122 138.963776,103.958542 
	C139.781784,101.330986 140.668579,98.722351 141.397949,96.070412 
	C142.090759,93.551392 142.618881,90.987076 143.219421,88.442673 
	C145.479935,89.781883 147.738022,91.125252 150.004135,92.454926 
	C150.279465,92.616478 150.598038,92.704292 150.594803,92.702972 
	C155.259842,90.830406 159.698715,89.048622 164.562637,87.252670 
	C172.565735,87.320053 180.143784,87.401604 187.592987,87.481773 
	C186.349792,83.396027 184.544250,78.487808 183.455414,73.425430 
	C182.955551,71.101402 183.862625,68.474770 184.461121,66.067078 
	C185.725937,67.799507 186.661316,69.450211 187.601120,71.515656 
	C188.566299,75.404327 188.896194,79.262245 190.698807,82.223763 
	C192.006638,84.372421 195.658661,86.924026 197.560501,86.452538 
	C200.414307,85.745041 202.729477,82.629631 205.118271,80.373573 
	C206.458282,79.108017 207.485474,77.511246 208.653610,76.063705 
	C209.840378,77.423370 211.658539,78.602798 212.106842,80.173264 
	C214.287430,87.812492 216.101913,95.556236 218.044891,103.263275 
	C219.031113,107.175209 220.015045,111.087738 221.000000,115.000000 
	C221.000000,119.356903 221.000000,123.713806 220.665466,128.728668 
	C218.690781,139.885071 214.002670,148.937637 206.932251,157.173004 
	C201.069092,161.168762 195.504700,164.993347 189.552643,168.851501 
	C181.654175,170.299927 174.143387,171.714767 166.162003,173.218262 
	C165.620758,175.003815 164.863571,177.501724 163.890472,180.285080 
	C162.873566,182.318985 162.072540,184.067459 161.060638,186.049866 
	C159.986877,187.769928 159.124008,189.256058 158.024307,190.944656 
	C156.328400,193.051010 154.869324,194.954910 153.135651,197.002075 
	C150.897202,199.066940 148.933380,200.988541 146.654770,203.013397 
	C144.940582,203.731461 143.541168,204.346283 141.927139,204.660858 
	C139.237289,200.854507 142.521042,199.659622 144.378510,198.105881 
	C158.523468,186.273590 167.326370,162.308792 163.211029,145.969452 
	C161.848465,147.072601 160.745255,148.560974 159.329849,148.970596 
	C157.265900,149.567932 154.604019,150.191452 152.860352,149.379456 
	C148.900955,147.535629 149.300827,143.908142 150.583954,140.327042 
	C153.650574,131.768372 155.265732,122.990753 154.014404,113.889320 
	C153.206238,108.011200 151.391174,102.508339 146.932877,97.321106 
	C146.552216,98.734215 146.299408,99.323006 146.245255,99.929527 
	C145.839127,104.478691 144.984360,108.869385 139.261383,109.147255 
	C133.499817,109.426987 132.456741,105.094193 131.503082,100.618408 
	C129.416077,90.823326 125.066727,82.166840 117.790428,74.723969 
	C110.315727,66.771370 101.960129,60.505146 91.611298,54.976810 
	C92.382629,57.969662 93.033524,59.825829 93.324219,61.736794 
	C94.727806,70.963684 99.285332,80.091988 94.141029,89.575668 
	C93.663948,90.455177 94.440445,92.059166 94.739265,93.301643 
	C95.001015,94.389954 95.876953,95.539543 95.679176,96.496170 
	C94.150414,103.891006 93.888405,111.768379 88.179955,117.711639 
	C88.070267,117.825836 88.711754,118.661537 88.900673,119.397919 
	C87.231094,120.430588 85.663620,121.225945 83.862091,121.660103 
	C76.790947,121.490738 70.091934,121.260635 65.505569,113.952446 
	C64.470009,117.645271 63.687141,120.012222 63.146877,122.433304 
	C59.897652,136.994064 55.221039,151.443069 58.037571,166.651062 
	C61.185261,183.647156 69.762589,196.788376 86.178856,204.449661 
	C100.874001,211.399780 115.528458,211.433685 130.448471,206.362350 
	C132.391846,205.701813 134.709625,206.142776 136.863983,206.421509 
	C135.582291,208.176712 134.290604,209.583939 132.625946,211.021606 
	C116.826706,216.468262 101.474663,215.989639 85.910934,210.286469 
	C80.422485,206.739166 75.209183,203.377228 69.835831,199.724487 
	C67.368118,196.894928 65.060463,194.356171 62.611012,191.478577 
	C60.464642,187.700668 58.460060,184.261581 56.368942,180.447937 
	C55.407616,174.075409 52.687260,170.838882 45.892864,171.721481 
	C42.767780,172.127426 39.415512,170.784485 35.831257,170.112091 
	C33.649700,169.468033 31.600582,169.294373 29.994797,168.359344 
	C25.288185,165.618713 20.758009,162.575104 16.043028,159.338165 
	C11.775620,151.941055 7.541622,144.902161 3.523800,137.741943 
	C2.363281,135.673767 1.824058,133.256973 1.000000,131.000000 
	C1.000000,129.933334 1.000000,128.866653 1.261863,127.107330 
	C1.349151,123.609787 1.174576,120.804893 1.000000,118.000000 
M20.299658,107.199181 
	C19.886072,108.135109 19.472485,109.071037 18.700880,110.758827 
	C18.700111,115.343582 18.703962,119.928345 18.696348,124.513092 
	C18.693199,126.408798 18.665476,128.304474 17.912155,130.161469 
	C16.776430,128.723801 15.073054,127.452324 14.595756,125.821915 
	C11.115432,113.933502 14.431188,103.897881 23.429255,95.598824 
	C24.828264,94.308487 26.320774,93.119530 27.432383,92.171631 
	C22.346436,90.286171 17.449423,88.470749 12.205460,86.526711 
	C9.033590,99.576042 4.485661,112.936432 6.013997,127.121834 
	C7.704241,142.809982 15.016834,155.073059 29.605171,162.350739 
	C29.605171,162.350739 29.639448,162.312561 29.956684,162.760895 
	C30.304056,162.851212 30.651428,162.941528 31.520559,163.514084 
	C38.148411,166.714890 45.100487,167.989548 52.861488,167.535828 
	C52.471855,164.952698 52.166557,162.928680 51.792210,160.446869 
	C44.274349,160.446869 37.197540,160.446869 29.543205,160.101547 
	C28.412653,158.091049 26.378071,156.104599 26.323881,154.065491 
	C26.171480,148.330994 24.959423,143.253937 21.242517,138.725067 
	C20.319113,137.599945 20.548056,135.529083 20.956915,133.908157 
	C27.329781,137.536392 31.499340,142.470062 30.735331,150.348648 
	C30.359194,154.227448 31.152601,157.018555 36.886971,155.960938 
	C37.704647,154.982056 39.044277,154.092972 39.231365,153.005600 
	C39.621063,150.740662 39.168449,148.334488 39.523716,146.058426 
	C39.718693,144.809235 40.853222,143.706696 41.564110,142.538040 
	C42.349022,143.774841 43.544846,144.927155 43.820602,146.268631 
	C44.214336,148.184006 44.033493,150.243683 43.917534,152.231201 
	C43.762459,154.889038 44.642189,156.245071 47.557869,156.161530 
	C50.069092,156.089554 51.940033,156.063797 52.308167,152.690414 
	C52.973984,146.589218 53.919056,140.489594 55.245129,134.499451 
	C56.143467,130.441467 56.456879,127.373932 52.091862,124.890129 
	C48.793938,123.013512 49.321243,119.259201 52.860809,118.810104 
	C58.964115,118.035698 60.487503,114.080048 61.763020,109.148430 
	C62.233719,107.328537 63.694286,105.137688 65.277336,104.463257 
	C66.255943,104.046341 68.316246,106.168449 70.165024,107.321693 
	C71.693504,106.715981 73.754654,105.899178 75.816391,105.082138 
	C69.599281,92.567886 49.572201,87.143440 34.244370,93.992920 
	C28.257092,96.701035 23.033564,100.207367 20.299658,107.199181 
M201.075180,106.149490 
	C197.521362,99.560722 192.195511,95.160980 184.272400,92.762909 
	C175.153519,89.507797 166.347519,90.398369 157.674057,94.510742 
	C154.572891,95.981110 153.360535,97.409622 155.252930,100.924072 
	C156.879303,103.944458 158.102859,107.404343 158.526825,110.792236 
	C159.036835,114.867668 161.430923,116.334602 164.725403,117.623589 
	C167.172729,118.581123 169.398148,120.105850 171.722397,121.377945 
	C169.631042,123.499115 167.554321,125.635132 165.433350,127.726273 
	C165.095215,128.059662 164.561020,128.196915 164.113022,128.415756 
	C158.483109,131.165985 155.076920,137.751190 155.833801,145.660278 
	C158.475540,142.802048 160.521851,140.267761 162.914551,138.119278 
	C164.352310,136.828262 166.330246,136.138840 168.065430,135.179047 
	C168.716675,137.054367 169.929962,138.935684 169.910004,140.803802 
	C169.857666,145.698410 169.267120,150.587280 168.899124,155.373901 
	C177.643295,157.055496 177.868607,156.874451 177.909698,148.979828 
	C177.916611,147.650681 177.716049,146.251022 178.070908,145.015991 
	C178.334381,144.098938 179.341721,143.395615 180.017731,142.597107 
	C180.706589,143.382996 181.896713,144.113388 181.990982,144.965088 
	C182.282135,147.595642 181.888062,150.316498 182.315689,152.910706 
	C182.500107,154.029388 184.049103,154.923141 185.843460,156.024460 
	C190.115906,156.746597 191.544281,154.729019 191.118881,150.709900 
	C190.945267,149.069611 191.022385,147.387253 191.138657,145.734818 
	C191.443680,141.399368 197.303604,134.821732 201.899109,134.639511 
	C201.493118,135.989853 201.489471,137.739395 200.612930,138.622849 
	C196.350464,142.918900 194.675751,147.871964 195.495926,153.877869 
	C195.957382,157.257034 194.163879,159.533722 189.996445,160.541702 
	C184.542465,160.568634 179.088379,160.583908 173.634521,160.625610 
	C167.499573,160.672531 167.481171,160.704895 168.192490,167.627640 
	C176.144073,167.893585 183.855438,167.070007 191.653198,162.873230 
	C200.970551,158.265640 208.382507,151.375854 211.745270,141.641632 
	C214.292252,134.268860 216.139664,126.054466 215.660675,118.379211 
	C214.970169,107.314743 211.888535,96.399506 210.030777,86.504463 
	C203.835709,88.642838 198.781601,90.387383 193.887955,92.076546 
	C195.115311,93.044029 196.596573,94.120857 197.976913,95.314400 
	C207.351913,103.420578 210.857254,115.214783 206.949402,126.401299 
	C206.418442,127.921211 204.489105,128.952606 202.786423,129.561981 
	C203.139420,124.712830 203.492416,119.863678 203.878281,114.264259 
	C202.992172,111.787659 202.106064,109.311050 201.075180,106.149490 
M79.814888,115.570068 
	C79.383949,113.014740 78.953011,110.459419 78.522072,107.904091 
	C77.765282,108.128632 77.008499,108.353172 76.251709,108.577721 
	C77.258286,111.059219 78.264862,113.540718 79.814888,115.570068 
z"/>
<path fill="#DD494B" opacity="1.000000" stroke="none" 
	d="
M37.903259,29.220158 
	C35.596008,28.754927 33.288761,28.289696 30.253710,27.922180 
	C20.017273,27.679930 10.508636,27.339964 1.000000,27.000000 
	C1.000000,24.299986 1.000000,21.599974 1.468657,18.449963 
	C74.958206,17.999977 147.979111,17.999989 221.000000,18.000000 
	C221.000000,21.030594 221.000000,24.061186 220.531342,27.545904 
	C210.486740,28.062895 200.910782,28.125761 191.334839,28.188627 
	C189.580002,28.147966 187.825165,28.107306 185.334076,27.959051 
	C182.972290,27.571203 181.347000,27.047760 179.721176,27.046112 
	C134.356308,27.000158 88.991302,26.980135 43.626698,27.098969 
	C41.717049,27.103970 39.810989,28.481852 37.903259,29.220158 
z"/>
<path fill="#C13839" opacity="1.000000" stroke="none" 
	d="
M86.186081,210.471802 
	C101.474663,215.989639 116.826706,216.468262 132.816895,211.356628 
	C135.565552,212.107803 137.749069,212.935806 139.935287,212.942963 
	C166.956635,213.031479 193.978363,213.000305 221.000000,213.000000 
	C221.000000,215.661118 221.000000,218.322250 221.000000,220.985413 
	C147.666672,220.987457 74.333336,220.987457 1.000000,220.981171 
	C1.000000,218.646423 1.000000,216.317947 1.468657,213.494736 
	C27.891165,212.999664 53.845402,213.058472 79.798157,212.889542 
	C81.932617,212.875656 84.057014,211.314194 86.186081,210.471802 
z"/>
<path fill="#D63E40" opacity="1.000000" stroke="none" 
	d="
M1.000000,8.000000 
	C1.000000,5.671621 1.000000,3.343242 1.000000,1.011666 
	C74.333336,1.008468 147.666672,1.008468 221.000000,1.012702 
	C221.000000,3.012688 221.000000,5.008439 220.531342,7.502060 
	C147.041794,7.999953 74.020897,7.999976 1.000000,8.000000 
z"/>
<path fill="#DC4446" opacity="1.000000" stroke="none" 
	d="
M221.000000,17.571537 
	C147.979111,17.999989 74.958206,17.999977 1.468657,17.999981 
	C1.000000,16.285641 1.000000,14.571283 1.468657,12.428516 
	C74.958206,12.000072 147.979111,12.000036 221.000000,12.000000 
	C221.000000,13.714358 221.000000,15.428716 221.000000,17.571537 
z"/>
<path fill="#DA4144" opacity="1.000000" stroke="none" 
	d="
M221.000000,11.600004 
	C147.979111,12.000036 74.958206,12.000072 1.468657,12.000053 
	C1.000000,10.933331 1.000000,9.866661 1.000000,8.399996 
	C74.020897,7.999976 147.041794,7.999953 220.531342,7.999965 
	C221.000000,9.066669 221.000000,10.133339 221.000000,11.600004 
z"/>
<path fill="#CA3D3E" opacity="1.000000" stroke="none" 
	d="
M85.910934,210.286469 
	C84.057014,211.314194 81.932617,212.875656 79.798157,212.889542 
	C53.845402,213.058472 27.891165,212.999664 1.468657,213.000000 
	C1.000000,209.638718 1.000000,206.277420 1.468657,202.458420 
	C20.758509,202.213120 39.580215,202.576828 58.400475,202.513092 
	C62.268387,202.500000 66.130882,200.889496 69.995880,200.015289 
	C75.209183,203.377228 80.422485,206.739166 85.910934,210.286469 
z"/>
<path fill="#DF5F61" opacity="1.000000" stroke="none" 
	d="
M36.957119,65.914757 
	C35.986778,67.160789 34.527874,68.272575 34.141399,69.679039 
	C33.143517,73.310577 32.889004,77.151154 31.833418,80.760796 
	C30.679083,84.708122 27.604805,86.713760 23.510288,86.459923 
	C19.654627,86.220901 17.292500,83.946350 15.975825,80.243568 
	C15.409159,78.649979 13.885872,77.396553 12.797186,75.988586 
	C11.676929,77.434296 9.952880,78.724556 9.534185,80.350876 
	C6.770553,91.085632 4.287642,101.892654 1.356628,112.838066 
	C1.000000,96.979103 1.000000,80.958214 1.456287,64.468651 
	C11.280220,64.000809 20.650661,63.877983 30.013535,64.089790 
	C32.340633,64.142433 34.643250,65.277321 36.957119,65.914757 
z"/>
<path fill="#C93D3E" opacity="1.000000" stroke="none" 
	d="
M221.000000,212.555832 
	C193.978363,213.000305 166.956635,213.031479 139.935287,212.942963 
	C137.749069,212.935806 135.565552,212.107803 133.189835,211.326202 
	C134.290604,209.583939 135.582291,208.176712 137.248993,206.381134 
	C139.129929,205.648880 140.635834,205.304993 142.141754,204.961105 
	C143.541168,204.346283 144.940582,203.731461 146.844452,203.355194 
	C149.357208,204.062347 151.363815,204.929764 153.374084,204.938385 
	C175.915726,205.035217 198.457947,204.999832 221.000000,205.000000 
	C221.000000,207.370560 221.000000,209.741104 221.000000,212.555832 
z"/>
<path fill="#DA4A4B" opacity="1.000000" stroke="none" 
	d="
M56.455479,180.822479 
	C58.460060,184.261581 60.464642,187.700668 62.150448,191.574127 
	C59.035305,192.338699 56.240307,192.940659 53.442345,192.954773 
	C35.961929,193.042908 18.480856,192.999710 1.000000,193.000000 
	C1.000000,189.638718 1.000000,186.277420 1.468657,182.458191 
	C17.514914,182.000183 33.092880,182.053833 48.669750,181.947250 
	C51.267433,181.929504 53.860355,181.215012 56.455479,180.822479 
z"/>
<path fill="#D34445" opacity="1.000000" stroke="none" 
	d="
M1.000000,193.449982 
	C18.480856,192.999710 35.961929,193.042908 53.442345,192.954773 
	C56.240307,192.940659 59.035305,192.338699 62.292236,191.912964 
	C65.060463,194.356171 67.368118,196.894928 69.835831,199.724487 
	C66.130882,200.889496 62.268387,202.500000 58.400475,202.513092 
	C39.580215,202.576828 20.758509,202.213120 1.468657,202.000351 
	C1.000000,199.299988 1.000000,196.599976 1.000000,193.449982 
z"/>
<path fill="#DD4F51" opacity="1.000000" stroke="none" 
	d="
M164.106369,179.999649 
	C164.863571,177.501724 165.620758,175.003815 166.162003,173.218262 
	C174.143387,171.714767 181.654175,170.299927 189.738663,169.201904 
	C192.132538,170.012268 193.945572,170.898773 195.774139,170.932053 
	C204.180389,171.085037 212.590973,170.999771 221.000000,171.000000 
	C221.000000,174.030594 221.000000,177.061188 220.531342,180.545898 
	C204.186661,180.999863 188.310379,181.047363 172.434891,180.954666 
	C169.656952,180.938446 166.882462,180.332977 164.106369,179.999649 
z"/>
<path fill="#D04243" opacity="1.000000" stroke="none" 
	d="
M221.000000,204.555832 
	C198.457947,204.999832 175.915726,205.035217 153.374084,204.938385 
	C151.363815,204.929764 149.357208,204.062347 147.159225,203.251953 
	C148.933380,200.988541 150.897202,199.066940 153.603027,197.036652 
	C157.481277,197.284805 160.621490,197.979584 163.753189,197.943130 
	C182.836533,197.721100 201.917938,197.332825 221.000000,197.000000 
	C221.000000,199.370560 221.000000,201.741104 221.000000,204.555832 
z"/>
<path fill="#DE4F51" opacity="1.000000" stroke="none" 
	d="
M56.368942,180.447937 
	C53.860355,181.215012 51.267433,181.929504 48.669750,181.947250 
	C33.092880,182.053833 17.514914,182.000183 1.468657,182.000122 
	C1.000000,179.299988 1.000000,176.599976 1.468657,173.449982 
	C11.472789,172.998642 21.012508,173.144958 30.540148,172.870972 
	C32.439220,172.816376 34.292091,171.155045 36.166260,170.234589 
	C39.415512,170.784485 42.767780,172.127426 45.892864,171.721481 
	C52.687260,170.838882 55.407616,174.075409 56.368942,180.447937 
z"/>
<path fill="#E0585A" opacity="1.000000" stroke="none" 
	d="
M186.712585,56.994659 
	C187.265915,52.210262 187.819260,47.425865 189.071915,42.317497 
	C200.180832,41.995689 210.590408,41.997845 221.000000,42.000000 
	C221.000000,46.689255 221.000000,51.378513 220.531342,56.533775 
	C208.945984,56.998077 197.829300,56.996368 186.712585,56.994659 
z"/>
<path fill="#E06162" opacity="1.000000" stroke="none" 
	d="
M221.000000,114.531342 
	C220.015045,111.087738 219.031113,107.175209 218.044891,103.263275 
	C216.101913,95.556236 214.287430,87.812492 212.106842,80.173264 
	C211.658539,78.602798 209.840378,77.423370 208.653610,76.063705 
	C207.485474,77.511246 206.458282,79.108017 205.118271,80.373573 
	C202.729477,82.629631 200.414307,85.745041 197.560501,86.452538 
	C195.658661,86.924026 192.006638,84.372421 190.698807,82.223763 
	C188.896194,79.262245 188.566299,75.404327 188.090576,71.496902 
	C199.383743,71.042274 210.191879,71.021133 221.000000,71.000000 
	C221.000000,85.354225 221.000000,99.708458 221.000000,114.531342 
z"/>
<path fill="#E15B5D" opacity="1.000000" stroke="none" 
	d="
M37.165527,65.981018 
	C34.643250,65.277321 32.340633,64.142433 30.013535,64.089790 
	C20.650661,63.877983 11.280220,64.000809 1.456287,63.999992 
	C1.000000,59.643101 1.000000,55.286201 1.468657,50.464584 
	C12.819963,49.935955 23.702610,49.872047 34.585258,49.808144 
	C35.448574,53.802887 36.311893,57.797634 37.521400,62.330799 
	C37.848412,63.917458 37.829231,64.965691 37.810051,66.013931 
	C37.810051,66.013931 37.373940,66.047279 37.165527,65.981018 
z"/>
<path fill="#E15E5F" opacity="1.000000" stroke="none" 
	d="
M221.000000,70.535347 
	C210.191879,71.021133 199.383743,71.042274 188.086151,71.082161 
	C186.661316,69.450211 185.725937,67.799507 184.444214,65.677429 
	C184.093140,64.164787 184.088394,63.123516 184.083649,62.082253 
	C184.871033,60.600075 185.658401,59.117893 186.579193,57.315186 
	C197.829300,56.996368 208.945984,56.998077 220.531342,56.999893 
	C221.000000,61.356899 221.000000,65.713799 221.000000,70.535347 
z"/>
<path fill="#DF5053" opacity="1.000000" stroke="none" 
	d="
M221.000000,41.535347 
	C210.590408,41.997845 200.180832,41.995689 189.289307,41.991512 
	C189.694870,37.642845 190.582352,33.296196 191.402344,28.569088 
	C200.910782,28.125761 210.486740,28.062895 220.531342,28.000015 
	C221.000000,32.356899 221.000000,36.713799 221.000000,41.535347 
z"/>
<path fill="#D64647" opacity="1.000000" stroke="none" 
	d="
M221.000000,196.583344 
	C201.917938,197.332825 182.836533,197.721100 163.753189,197.943130 
	C160.621490,197.979584 157.481277,197.284805 153.877625,196.893402 
	C154.869324,194.954910 156.328400,193.051010 158.482422,191.059174 
	C161.970642,191.314041 164.762482,191.939484 167.557419,191.953674 
	C185.371231,192.044113 203.185730,191.999878 221.000000,192.000000 
	C221.000000,193.388885 221.000000,194.777786 221.000000,196.583344 
z"/>
<path fill="#DF5658" opacity="1.000000" stroke="none" 
	d="
M34.596588,49.393375 
	C23.702610,49.872047 12.819963,49.935955 1.468657,49.999931 
	C1.000000,46.638714 1.000000,43.277424 1.468657,39.458069 
	C12.005414,38.997974 22.073513,38.995949 32.141613,38.993927 
	C32.963715,42.322155 33.785816,45.650383 34.596588,49.393375 
z"/>
<path fill="#DB4B4D" opacity="1.000000" stroke="none" 
	d="
M163.890472,180.285080 
	C166.882462,180.332977 169.656952,180.938446 172.434891,180.954666 
	C188.310379,181.047363 204.186661,180.999863 220.531342,181.000000 
	C221.000000,182.714355 221.000000,184.428711 220.531342,186.571533 
	C203.919785,186.999969 187.776398,187.067398 171.634399,186.946167 
	C168.177475,186.920197 164.725677,186.210602 161.271515,185.815948 
	C162.072540,184.067459 162.873566,182.318985 163.890472,180.285080 
z"/>
<path fill="#DE5052" opacity="1.000000" stroke="none" 
	d="
M32.142124,38.598618 
	C22.073513,38.995949 12.005414,38.997974 1.468657,39.000000 
	C1.000000,35.307091 1.000000,31.614182 1.000000,27.460636 
	C10.508636,27.339964 20.017273,27.679930 29.947645,28.071899 
	C30.960466,31.483706 31.551550,34.843506 32.142124,38.598618 
z"/>
<path fill="#DF5355" opacity="1.000000" stroke="none" 
	d="
M35.831261,170.112091 
	C34.292091,171.155045 32.439220,172.816376 30.540148,172.870972 
	C21.012508,173.144958 11.472789,172.998642 1.468657,173.000000 
	C1.000000,169.638718 1.000000,166.277420 1.425402,162.454132 
	C5.718965,161.802612 9.597177,161.718018 13.448138,161.349030 
	C14.397210,161.258087 15.257570,160.241318 16.158714,159.650177 
	C20.758009,162.575104 25.288185,165.618713 29.994797,168.359344 
	C31.600582,169.294373 33.649700,169.468033 35.831261,170.112091 
z"/>
<path fill="#D9484A" opacity="1.000000" stroke="none" 
	d="
M161.060638,186.049866 
	C164.725677,186.210602 168.177475,186.920197 171.634399,186.946167 
	C187.776398,187.067398 203.919785,186.999969 220.531342,187.000000 
	C221.000000,188.388885 221.000000,189.777786 221.000000,191.583344 
	C203.185730,191.999878 185.371231,192.044113 167.557419,191.953674 
	C164.762482,191.939484 161.970642,191.314041 158.719254,190.856720 
	C159.124008,189.256058 159.986877,187.769928 161.060638,186.049866 
z"/>
<path fill="#DE5456" opacity="1.000000" stroke="none" 
	d="
M221.000000,170.536819 
	C212.590973,170.999771 204.180389,171.085037 195.774139,170.932053 
	C193.945572,170.898773 192.132538,170.012268 190.126328,169.168335 
	C195.504700,164.993347 201.069092,161.168762 207.305817,157.265274 
	C212.318756,157.457565 216.659378,157.728790 221.000000,158.000000 
	C221.000000,162.024551 221.000000,166.049088 221.000000,170.536819 
z"/>
<path fill="#DC585A" opacity="1.000000" stroke="none" 
	d="
M16.043026,159.338165 
	C15.257570,160.241318 14.397210,161.258087 13.448138,161.349030 
	C9.597177,161.718018 5.718965,161.802612 1.425402,161.996063 
	C1.000000,151.979111 1.000000,141.958206 1.000000,131.468658 
	C1.824058,133.256973 2.363281,135.673767 3.523800,137.741943 
	C7.541622,144.902161 11.775620,151.941055 16.043026,159.338165 
z"/>
<path fill="#DD5A5C" opacity="1.000000" stroke="none" 
	d="
M221.000000,157.531342 
	C216.659378,157.728790 212.318756,157.457565 207.604568,157.094086 
	C214.002670,148.937637 218.690781,139.885071 220.665466,129.193329 
	C221.000000,138.354233 221.000000,147.708450 221.000000,157.531342 
z"/>
<path fill="#502323" opacity="1.000000" stroke="none" 
	d="
M1.000000,118.449982 
	C1.174576,120.804893 1.349151,123.609787 1.261863,126.707336 
	C1.000000,124.299988 1.000000,121.599968 1.000000,118.449982 
z"/>
<path fill="#EE4343" opacity="1.000000" stroke="none" 
	d="
M141.927139,204.660858 
	C140.635834,205.304993 139.129929,205.648880 137.238983,206.033157 
	C134.709625,206.142776 132.391846,205.701813 130.448471,206.362350 
	C115.528458,211.433685 100.874001,211.399780 86.196381,204.020294 
	C85.981918,202.781845 86.007744,202.209900 86.499191,201.606033 
	C99.625992,201.632812 112.287132,201.716721 124.948372,201.740616 
	C132.275635,201.754440 134.316528,199.940338 133.925705,192.557388 
	C133.611404,186.620041 135.110703,182.073151 139.050934,177.283524 
	C151.922943,161.636703 151.183868,141.933167 138.113556,128.810852 
	C132.168045,122.841682 124.761749,119.617928 116.922562,116.728317 
	C119.509201,103.190414 119.998093,90.066307 117.392593,76.896629 
	C117.280815,76.331604 117.726311,75.656334 117.912201,75.032417 
	C125.066727,82.166840 129.416077,90.823326 131.503082,100.618408 
	C132.456741,105.094193 133.499817,109.426987 139.261383,109.147255 
	C144.984360,108.869385 145.839127,104.478691 146.245255,99.929527 
	C146.299408,99.323006 146.552216,98.734215 146.932877,97.321106 
	C151.391174,102.508339 153.206238,108.011200 154.014404,113.889320 
	C155.265732,122.990753 153.650574,131.768372 150.583954,140.327042 
	C149.300827,143.908142 148.900955,147.535629 152.860352,149.379456 
	C154.604019,150.191452 157.265900,149.567932 159.329849,148.970596 
	C160.745255,148.560974 161.848465,147.072601 163.211029,145.969452 
	C167.326370,162.308792 158.523468,186.273590 144.378510,198.105881 
	C142.521042,199.659622 139.237289,200.854507 141.927139,204.660858 
z"/>
<path fill="#585D62" opacity="1.000000" stroke="none" 
	d="
M184.978180,155.919067 
	C184.049103,154.923141 182.500107,154.029388 182.315689,152.910706 
	C181.888062,150.316498 182.282135,147.595642 181.990982,144.965088 
	C181.896713,144.113388 180.706589,143.382996 180.017731,142.597107 
	C179.341721,143.395615 178.334381,144.098938 178.070908,145.015991 
	C177.716049,146.251022 177.916611,147.650681 177.909698,148.979828 
	C177.868607,156.874451 177.643295,157.055496 168.899124,155.373901 
	C169.267120,150.587280 169.857666,145.698410 169.910004,140.803802 
	C169.929962,138.935684 168.716675,137.054367 168.065430,135.179047 
	C166.330246,136.138840 164.352310,136.828262 162.914551,138.119278 
	C160.521851,140.267761 158.475540,142.802048 155.833801,145.660278 
	C155.076920,137.751190 158.483109,131.165985 164.113022,128.415756 
	C164.561020,128.196915 165.095215,128.059662 165.433350,127.726273 
	C167.554321,125.635132 169.631042,123.499115 171.722397,121.377945 
	C169.398148,120.105850 167.172729,118.581123 164.725403,117.623589 
	C161.430923,116.334602 159.036835,114.867668 158.526825,110.792236 
	C158.102859,107.404343 156.879303,103.944458 155.252930,100.924072 
	C153.360535,97.409622 154.572891,95.981110 157.674057,94.510742 
	C166.347519,90.398369 175.153519,89.507797 184.746826,93.236519 
	C188.562408,97.927086 191.903549,102.144043 195.053253,106.624130 
	C189.989883,112.476151 184.566803,117.074242 176.938370,118.617783 
	C173.326920,119.348518 172.616837,122.661629 175.565704,124.775970 
	C180.982712,128.659958 186.681870,132.183533 193.905518,130.692657 
	C193.064682,133.022873 192.754730,135.613297 191.304001,136.758179 
	C184.853806,141.848526 184.474503,148.680130 184.978180,155.919067 
z"/>
<path fill="#0B0505" opacity="1.000000" stroke="none" 
	d="
M116.910545,117.162033 
	C124.761749,119.617928 132.168045,122.841682 138.113556,128.810852 
	C151.183868,141.933167 151.922943,161.636703 139.050934,177.283524 
	C135.110703,182.073151 133.611404,186.620041 133.925705,192.557388 
	C134.316528,199.940338 132.275635,201.754440 124.948372,201.740616 
	C112.287132,201.716721 99.625992,201.632812 86.216110,201.423035 
	C81.583015,200.004044 80.514206,196.981216 80.997009,193.388947 
	C81.866768,186.917450 80.481285,181.463226 75.516624,176.823944 
	C74.270554,175.659531 74.526360,172.887909 74.458298,170.855286 
	C81.546783,173.428787 85.899109,180.993637 85.938469,190.172699 
	C85.967407,196.919159 86.231506,197.146774 93.443405,196.282440 
	C94.630257,195.075333 95.849213,193.910446 96.024132,192.605591 
	C96.374397,189.992798 95.889000,187.263916 96.277756,184.662018 
	C96.477768,183.323395 97.815216,182.154739 98.638687,180.909271 
	C99.467346,182.114136 100.836815,183.245300 101.013130,184.539062 
	C101.391205,187.313400 101.192230,190.172134 101.159256,192.995483 
	C101.099327,198.126511 104.989098,196.470551 107.615204,196.636429 
	C110.135902,196.795639 113.239014,197.451309 113.029549,193.054276 
	C112.879692,189.908325 112.886688,186.726761 113.217285,183.602753 
	C113.319893,182.633163 114.712303,181.800064 115.514236,180.904495 
	C116.320541,181.780487 117.694664,182.580627 117.823761,183.547089 
	C118.173004,186.161423 118.237000,188.871490 117.967369,191.497726 
	C117.534271,195.716354 119.289009,196.850739 123.343025,196.877960 
	C127.601646,196.906540 129.616089,195.754074 129.014709,191.245255 
	C128.155060,184.800354 130.038361,179.634995 134.693863,174.652039 
	C141.142380,167.749985 144.168137,158.967667 142.882370,149.380829 
	C142.457809,146.215317 140.350403,143.275513 139.024475,140.251709 
	C139.036514,140.270905 139.094254,140.328232 139.177368,139.895447 
	C138.072968,137.501648 137.167068,135.284256 135.652710,133.620789 
	C124.941971,121.855522 107.264610,118.098709 91.709503,124.227539 
	C83.114723,127.968735 75.877777,132.712097 72.875046,142.347305 
	C72.534744,148.511658 72.381805,154.335602 72.209793,160.158951 
	C72.145294,162.342514 72.036484,164.524780 71.594849,166.688004 
	C69.895317,164.785858 67.894135,163.086823 67.306923,160.991501 
	C63.000225,145.624054 68.842979,132.317078 84.096146,122.021317 
	C85.663620,121.225945 87.231094,120.430588 89.289536,119.322716 
	C98.667709,116.102036 107.702827,115.365166 116.910545,117.162033 
z"/>
<path fill="#585D62" opacity="1.000000" stroke="none" 
	d="
M34.955460,93.914581 
	C49.572201,87.143440 69.599281,92.567886 75.816391,105.082138 
	C73.754654,105.899178 71.693504,106.715981 70.165024,107.321693 
	C68.316246,106.168449 66.255943,104.046341 65.277336,104.463257 
	C63.694286,105.137688 62.233719,107.328537 61.763020,109.148430 
	C60.487503,114.080048 58.964115,118.035698 52.860809,118.810104 
	C49.321243,119.259201 48.793938,123.013512 52.091862,124.890129 
	C56.456879,127.373932 56.143467,130.441467 55.245129,134.499451 
	C53.919056,140.489594 52.973984,146.589218 52.308167,152.690414 
	C51.940033,156.063797 50.069092,156.089554 47.557869,156.161530 
	C44.642189,156.245071 43.762459,154.889038 43.917534,152.231201 
	C44.033493,150.243683 44.214336,148.184006 43.820602,146.268631 
	C43.544846,144.927155 42.349022,143.774841 41.564110,142.538040 
	C40.853222,143.706696 39.718693,144.809235 39.523716,146.058426 
	C39.168449,148.334488 39.621063,150.740662 39.231365,153.005600 
	C39.044277,154.092972 37.704647,154.982056 36.454201,155.468536 
	C36.807072,147.833511 35.503159,141.468948 30.035862,136.194672 
	C28.830671,135.032043 28.962622,132.483337 28.867218,130.635986 
	C35.843010,131.503616 41.167816,128.477036 46.134575,124.811523 
	C49.166821,122.573708 48.627403,119.464394 44.959427,118.695145 
	C36.830692,116.990387 31.117390,112.010986 26.161953,105.666245 
	C29.191545,101.545601 32.073502,97.730087 34.955460,93.914581 
z"/>
<path fill="#DE4F51" opacity="1.000000" stroke="none" 
	d="
M38.098602,29.497688 
	C39.810989,28.481852 41.717049,27.103970 43.626698,27.098969 
	C88.991302,26.980135 134.356308,27.000158 179.721176,27.046112 
	C181.347000,27.047760 182.972290,27.571203 185.013306,28.019588 
	C180.414200,31.491644 175.399643,34.795570 169.625580,38.078876 
	C166.413803,37.706211 163.962082,37.052433 161.509094,37.047615 
	C127.460297,36.980732 93.411224,36.971275 59.362583,37.070557 
	C56.964283,37.077553 54.568790,38.047440 52.171993,38.569580 
	C47.545979,35.638126 42.919960,32.706673 38.098602,29.497688 
z"/>
<path fill="#D22F2F" opacity="1.000000" stroke="none" 
	d="
M116.922562,116.728317 
	C107.702827,115.365166 98.667709,116.102036 89.391647,119.085403 
	C88.711754,118.661537 88.070267,117.825836 88.179955,117.711639 
	C93.888405,111.768379 94.150414,103.891006 95.679176,96.496170 
	C95.876953,95.539543 95.001015,94.389954 94.739265,93.301643 
	C94.440445,92.059166 93.663948,90.455177 94.141029,89.575668 
	C99.285332,80.091988 94.727806,70.963684 93.324219,61.736794 
	C93.033524,59.825829 92.382629,57.969662 91.611298,54.976810 
	C101.960129,60.505146 110.315727,66.771370 117.790428,74.723969 
	C117.726311,75.656334 117.280815,76.331604 117.392593,76.896629 
	C119.998093,90.066307 119.509201,103.190414 116.922562,116.728317 
z"/>
<path fill="#DF5457" opacity="1.000000" stroke="none" 
	d="
M52.399254,38.821838 
	C54.568790,38.047440 56.964283,37.077553 59.362583,37.070557 
	C93.411224,36.971275 127.460297,36.980732 161.509094,37.047615 
	C163.962082,37.052433 166.413803,37.706211 169.328918,38.189320 
	C166.471359,41.471851 163.150986,44.623322 159.109009,47.881615 
	C156.258820,47.663895 154.131470,47.067368 152.001465,47.057777 
	C134.732285,46.980045 117.461510,46.917667 100.194313,47.117622 
	C97.725677,47.146214 95.273605,48.606098 92.813873,49.403568 
	C90.623756,49.218082 88.433647,49.032597 85.514404,48.935574 
	C77.593369,49.014526 70.401459,49.005020 63.209541,48.995514 
	C59.681866,45.688370 56.154190,42.381233 52.399254,38.821838 
z"/>
<path fill="#CD2E2E" opacity="1.000000" stroke="none" 
	d="
M74.091934,170.854919 
	C74.526360,172.887909 74.270554,175.659531 75.516624,176.823944 
	C80.481285,181.463226 81.866768,186.917450 80.997009,193.388947 
	C80.514206,196.981216 81.583015,200.004044 85.750488,201.454956 
	C86.007744,202.209900 85.981918,202.781845 85.938568,203.783142 
	C69.762589,196.788376 61.185261,183.647156 58.037571,166.651062 
	C55.221039,151.443069 59.897652,136.994064 63.146877,122.433304 
	C63.687141,120.012222 64.470009,117.645271 65.505569,113.952446 
	C70.091934,121.260635 76.790947,121.490738 83.862091,121.660110 
	C68.842979,132.317078 63.000225,145.624054 67.306923,160.991501 
	C67.894135,163.086823 69.895317,164.785858 71.744476,166.990479 
	C72.862061,168.493362 73.476997,169.674149 74.091934,170.854919 
z"/>
<path fill="#D32F2F" opacity="1.000000" stroke="none" 
	d="
M183.735062,61.872993 
	C184.088394,63.123516 184.093140,64.164787 184.114777,65.595703 
	C183.862625,68.474770 182.955551,71.101402 183.455414,73.425430 
	C184.544250,78.487808 186.349792,83.396027 187.592987,87.481773 
	C180.143784,87.401604 172.565735,87.320053 164.546326,86.806061 
	C163.748398,76.683289 163.375519,66.993507 163.048065,57.302185 
	C162.977432,55.211769 163.070496,53.115822 163.088135,51.022423 
	C169.222122,43.698990 176.973312,38.525955 185.828369,33.318741 
	C184.555801,39.927475 183.126450,45.529778 182.512833,51.220051 
	C182.145081,54.630215 183.052307,58.177872 183.735062,61.872993 
z"/>
<path fill="#D32F2F" opacity="1.000000" stroke="none" 
	d="
M38.043915,66.348785 
	C37.829231,64.965691 37.848412,63.917458 37.858978,62.475189 
	C38.457249,59.505047 39.795444,56.850796 39.530144,54.367882 
	C38.813190,47.657917 37.414131,41.020836 37.286259,33.160492 
	C44.126694,38.733845 50.967129,44.307194 57.933228,50.633553 
	C59.253624,63.319889 60.179832,75.245201 56.994308,87.047760 
	C48.701019,87.335480 40.407730,87.623192 32.627224,87.893120 
	C36.828468,82.174355 39.536545,74.980568 38.043915,66.348785 
z"/>
<path fill="#EE4343" opacity="1.000000" stroke="none" 
	d="
M57.302170,87.241623 
	C60.179832,75.245201 59.253624,63.319889 58.068645,50.916313 
	C64.723976,56.923077 68.566261,64.868988 70.365181,73.886887 
	C70.978745,76.962669 71.973038,79.779366 75.661903,80.227509 
	C78.856339,80.615585 81.238487,79.394073 82.212410,76.198753 
	C82.740547,74.465996 82.959648,72.639046 83.315399,70.868248 
	C87.683548,73.962128 90.688309,81.522812 89.884064,90.856369 
	C89.249413,98.221664 87.272957,105.471336 85.297615,113.153427 
	C80.901512,99.102509 71.286789,91.025719 57.302170,87.241623 
z"/>
<path fill="#CA2D2D" opacity="1.000000" stroke="none" 
	d="
M203.207245,130.210190 
	C204.489105,128.952606 206.418442,127.921211 206.949402,126.401299 
	C210.857254,115.214783 207.351913,103.420578 197.976913,95.314400 
	C196.596573,94.120857 195.115311,93.044029 193.887955,92.076546 
	C198.781601,90.387383 203.835709,88.642838 210.030777,86.504463 
	C211.888535,96.399506 214.970169,107.314743 215.660675,118.379211 
	C216.139664,126.054466 214.292252,134.268860 211.745270,141.641632 
	C208.382507,151.375854 200.970551,158.265640 191.305725,162.518250 
	C190.946228,161.647858 190.934204,161.132462 190.922180,160.617065 
	C194.163879,159.533722 195.957382,157.257034 195.495926,153.877869 
	C194.675751,147.871964 196.350464,142.918900 200.612930,138.622849 
	C201.489471,137.739395 201.493118,135.989853 201.858994,133.967651 
	C202.281662,132.267258 202.744461,131.238724 203.207245,130.210190 
z"/>
<path fill="#CD2E2E" opacity="1.000000" stroke="none" 
	d="
M20.247314,133.892929 
	C20.548056,135.529083 20.319113,137.599945 21.242517,138.725067 
	C24.959423,143.253937 26.171480,148.330994 26.323881,154.065491 
	C26.378071,156.104599 28.412653,158.091049 29.698151,160.748718 
	C29.754107,161.709259 29.655115,162.022644 29.556126,162.336044 
	C15.016834,155.073059 7.704241,142.809982 6.013997,127.121834 
	C4.485661,112.936432 9.033590,99.576042 12.205460,86.526711 
	C17.449423,88.470749 22.346436,90.286171 27.432383,92.171631 
	C26.320774,93.119530 24.828264,94.308487 23.429255,95.598824 
	C14.431188,103.897881 11.115432,113.933502 14.595756,125.821915 
	C15.073054,127.452324 16.776430,128.723801 18.395866,130.499847 
	C19.335491,131.856445 19.791403,132.874695 20.247314,133.892929 
z"/>
<path fill="#DF595B" opacity="1.000000" stroke="none" 
	d="
M93.048332,49.638615 
	C95.273605,48.606098 97.725677,47.146214 100.194313,47.117622 
	C117.461510,46.917667 134.732285,46.980045 152.001465,47.057777 
	C154.131470,47.067368 156.258820,47.663895 158.822769,48.041199 
	C156.720276,51.934551 154.182434,55.775143 151.010056,59.683655 
	C146.471069,59.717155 142.565735,59.613464 138.662292,59.661976 
	C128.969467,59.782425 119.277512,59.972324 109.585205,60.134331 
	C104.151070,56.714108 98.716927,53.293884 93.048332,49.638615 
z"/>
<path fill="#EC4343" opacity="1.000000" stroke="none" 
	d="
M162.809357,51.214592 
	C163.070496,53.115822 162.977432,55.211769 163.048065,57.302185 
	C163.375519,66.993507 163.748398,76.683289 164.121277,86.820236 
	C159.698715,89.048622 155.259842,90.830406 150.594803,92.702972 
	C150.598038,92.704292 150.279465,92.616478 150.004135,92.454926 
	C147.738022,91.125252 145.479935,89.781883 143.219421,88.442673 
	C142.618881,90.987076 142.090759,93.551392 141.397949,96.070412 
	C140.668579,98.722351 139.781784,101.330986 138.963776,103.958542 
	C137.941696,101.708122 136.837204,99.490532 135.923538,97.196922 
	C135.188843,95.352623 134.946869,93.278526 134.034012,91.544479 
	C129.891479,83.675529 133.440109,77.267662 138.051895,69.572617 
	C138.570267,72.134995 138.841324,73.463440 139.107513,74.792862 
	C139.768417,78.093681 141.518829,80.296127 145.115219,80.282089 
	C148.662399,80.268250 150.520462,78.218925 151.135773,74.834557 
	C152.748108,65.966187 156.521271,58.140606 162.809357,51.214592 
z"/>
<path fill="#DE5D5E" opacity="1.000000" stroke="none" 
	d="
M109.788132,60.418327 
	C119.277512,59.972324 128.969467,59.782425 138.662292,59.661976 
	C142.565735,59.613464 146.471069,59.717155 150.752975,59.906479 
	C149.353516,65.402924 147.576630,70.744461 145.799744,76.085999 
	C145.129379,76.042244 144.459015,75.998489 143.788651,75.954742 
	C143.543289,72.871155 143.475388,69.758644 142.979309,66.715935 
	C142.722855,65.142944 141.974548,62.710423 140.966400,62.435780 
	C139.684540,62.086575 137.259598,63.094975 136.469818,64.279625 
	C133.400940,68.882767 130.784592,73.787613 128.233231,78.178490 
	C122.328575,72.521774 116.159813,66.612045 109.788132,60.418327 
z"/>
<path fill="#DA585A" opacity="1.000000" stroke="none" 
	d="
M63.324402,49.304771 
	C70.401459,49.005020 77.593369,49.014526 85.238251,49.137238 
	C86.509850,53.431561 87.334961,57.611423 88.144196,61.794353 
	C88.508636,63.678181 88.841431,65.568130 89.188583,67.455299 
	C88.575935,67.936752 87.963280,68.418198 87.350632,68.899651 
	C86.701073,67.594772 86.337753,65.973892 85.331680,65.062607 
	C83.983284,63.841255 82.137489,63.169060 80.505249,62.261082 
	C79.951805,64.001884 79.202682,65.708382 78.890060,67.491402 
	C78.401871,70.275681 78.209450,73.111816 77.891708,75.925972 
	C77.284912,75.999352 76.678108,76.072723 76.071312,76.146103 
	C74.472183,71.508041 73.262306,66.684471 71.164963,62.283863 
	C69.048027,57.842155 66.050819,53.819992 63.324402,49.304771 
z"/>
<path fill="#494D52" opacity="1.000000" stroke="none" 
	d="
M20.602116,133.900543 
	C19.791403,132.874695 19.335491,131.856445 18.764254,130.519196 
	C18.665476,128.304474 18.693199,126.408798 18.696348,124.513092 
	C18.703962,119.928345 18.700111,115.343582 19.143044,110.384247 
	C19.936314,110.011887 20.287420,110.014107 20.685364,110.473389 
	C20.762138,112.727623 20.753311,114.526428 20.829111,116.321663 
	C21.081470,122.298401 22.424753,127.704056 28.478840,130.572891 
	C28.962622,132.483337 28.830671,135.032043 30.035862,136.194672 
	C35.503159,141.468948 36.807072,147.833511 36.026611,155.429596 
	C31.152601,157.018555 30.359194,154.227448 30.735331,150.348648 
	C31.499340,142.470062 27.329781,137.536392 20.602116,133.900543 
z"/>
<path fill="#494E53" opacity="1.000000" stroke="none" 
	d="
M202.996841,129.886078 
	C202.744461,131.238724 202.281662,132.267258 201.699615,133.608826 
	C197.303604,134.821732 191.443680,141.399368 191.138657,145.734818 
	C191.022385,147.387253 190.945267,149.069611 191.118881,150.709900 
	C191.544281,154.729019 190.115906,156.746597 185.410828,155.971771 
	C184.474503,148.680130 184.853806,141.848526 191.304001,136.758179 
	C192.754730,135.613297 193.064682,133.022873 194.160370,130.520355 
	C200.253891,126.590820 200.592941,120.738434 201.544006,115.013374 
	C202.530487,115.012787 203.187943,115.013657 203.845398,115.014526 
	C203.492416,119.863678 203.139420,124.712830 202.996841,129.886078 
z"/>
<path fill="#EA4242" opacity="1.000000" stroke="none" 
	d="
M190.459320,160.579376 
	C190.934204,161.132462 190.946228,161.647858 190.956055,162.550156 
	C183.855438,167.070007 176.144073,167.893585 168.192490,167.627640 
	C167.481171,160.704895 167.499573,160.672531 173.634521,160.625610 
	C179.088379,160.583908 184.542465,160.568634 190.459320,160.579376 
z"/>
<path fill="#E74141" opacity="1.000000" stroke="none" 
	d="
M29.580648,162.343384 
	C29.655115,162.022644 29.754107,161.709259 29.986914,160.921371 
	C37.197540,160.446869 44.274349,160.446869 51.792210,160.446869 
	C52.166557,162.928680 52.471855,164.952698 52.861488,167.535828 
	C45.100487,167.989548 38.148411,166.714890 31.068836,163.093384 
	C30.291225,162.552643 29.965336,162.432602 29.639446,162.312561 
	C29.639448,162.312561 29.605171,162.350739 29.580648,162.343384 
z"/>
<path fill="#45494E" opacity="1.000000" stroke="none" 
	d="
M195.244690,106.361008 
	C191.903549,102.144043 188.562408,97.927086 185.094574,93.410339 
	C192.195511,95.160980 197.521362,99.560722 201.042633,106.570404 
	C201.010086,106.991318 200.803436,107.145813 200.484680,106.969780 
	C198.525497,106.649498 196.885101,106.505257 195.244690,106.361008 
z"/>
<path fill="#44484D" opacity="1.000000" stroke="none" 
	d="
M34.599915,93.953751 
	C32.073502,97.730087 29.191545,101.545601 25.788610,105.642578 
	C23.859272,106.293098 22.450911,106.662163 20.984028,106.985634 
	C20.925508,106.940048 20.809088,106.848091 20.809088,106.848091 
	C23.033564,100.207367 28.257092,96.701035 34.599915,93.953751 
z"/>
<path fill="#474B4F" opacity="1.000000" stroke="none" 
	d="
M79.543159,115.796143 
	C78.264862,113.540718 77.258286,111.059219 76.251709,108.577721 
	C77.008499,108.353172 77.765282,108.128632 78.522072,107.904091 
	C78.953011,110.459419 79.383949,113.014740 79.543159,115.796143 
z"/>
<path fill="#45494E" opacity="1.000000" stroke="none" 
	d="
M203.861847,114.639389 
	C203.187943,115.013657 202.530487,115.012787 201.492294,114.574135 
	C201.008865,111.806175 200.906143,109.475998 200.803436,107.145813 
	C200.803436,107.145813 201.010086,106.991318 201.115021,106.912880 
	C202.106064,109.311050 202.992172,111.787659 203.861847,114.639389 
z"/>
<path fill="#44484D" opacity="1.000000" stroke="none" 
	d="
M20.638527,110.016335 
	C20.287420,110.014107 19.936314,110.011887 19.322052,110.008316 
	C19.472485,109.071037 19.886072,108.135109 20.554373,107.023636 
	C20.809088,106.848091 20.925508,106.940048 20.960098,107.361618 
	C20.875967,108.527573 20.757246,109.271957 20.638527,110.016335 
z"/>
<path fill="#CD2E2E" opacity="1.000000" stroke="none" 
	d="
M29.798065,162.536728 
	C29.965336,162.432602 30.291225,162.552643 30.807957,162.852264 
	C30.651428,162.941528 30.304056,162.851212 29.798065,162.536728 
z"/>
<path fill="#0A0804" opacity="1.000000" stroke="none" 
	d="
M200.484680,106.969780 
	C200.906143,109.475998 201.008865,111.806175 201.163284,114.575600 
	C200.592941,120.738434 200.253891,126.590820 194.166077,130.115112 
	C186.681870,132.183533 180.982712,128.659958 175.565704,124.775970 
	C172.616837,122.661629 173.326920,119.348518 176.938370,118.617783 
	C184.566803,117.074242 189.989883,112.476151 195.053253,106.624130 
	C196.885101,106.505257 198.525497,106.649498 200.484680,106.969780 
M193.680527,125.182854 
	C195.037720,121.183640 196.394928,117.184425 197.752121,113.185211 
	C197.308075,113.080231 196.864029,112.975243 196.419983,112.870255 
	C191.299789,116.246597 186.179611,119.622940 180.957489,123.066505 
	C184.536118,125.333122 188.270706,127.738953 193.680527,125.182854 
z"/>
<path fill="#585D62" opacity="1.000000" stroke="none" 
	d="
M92.064865,124.196083 
	C107.264610,118.098709 124.941971,121.855522 135.652710,133.620789 
	C137.167068,135.284256 138.072968,137.501648 138.920593,139.574387 
	C135.875732,137.213165 133.759888,138.555893 131.783905,140.743393 
	C126.222107,146.900513 120.013504,151.848618 111.456062,153.362762 
	C107.770561,154.014862 106.808388,158.149872 109.985451,159.985245 
	C115.062080,162.917999 120.526840,165.635269 126.176102,166.990494 
	C131.694809,168.314392 136.400009,165.377686 137.598007,159.792557 
	C138.955765,153.462646 138.614822,146.768356 139.012451,140.232498 
	C140.350403,143.275513 142.457809,146.215317 142.882370,149.380829 
	C144.168137,158.967667 141.142380,167.749985 134.693863,174.652039 
	C130.038361,179.634995 128.155060,184.800354 129.014709,191.245255 
	C129.616089,195.754074 127.601646,196.906540 123.343025,196.877960 
	C119.289009,196.850739 117.534271,195.716354 117.967369,191.497726 
	C118.237000,188.871490 118.173004,186.161423 117.823761,183.547089 
	C117.694664,182.580627 116.320541,181.780487 115.514236,180.904495 
	C114.712303,181.800064 113.319893,182.633163 113.217285,183.602753 
	C112.886688,186.726761 112.879692,189.908325 113.029549,193.054276 
	C113.239014,197.451309 110.135902,196.795639 107.615204,196.636429 
	C104.989098,196.470551 101.099327,198.126511 101.159256,192.995483 
	C101.192230,190.172134 101.391205,187.313400 101.013130,184.539062 
	C100.836815,183.245300 99.467346,182.114136 98.638687,180.909271 
	C97.815216,182.154739 96.477768,183.323395 96.277756,184.662018 
	C95.889000,187.263916 96.374397,189.992798 96.024132,192.605591 
	C95.849213,193.910446 94.630257,195.075333 93.436081,195.802155 
	C93.872849,187.374420 92.121117,180.476517 86.193863,174.618042 
	C84.131248,172.579376 83.398598,169.195129 82.495384,166.559555 
	C91.248398,168.692719 97.859360,164.805588 104.095436,160.231720 
	C107.351425,157.843628 106.500923,154.022552 102.504234,153.295898 
	C93.194672,151.603302 86.771843,145.867020 81.072327,138.680466 
	C82.158478,136.679932 82.999100,134.887054 84.202682,133.384995 
	C86.722092,130.240845 89.432747,127.249931 92.064865,124.196083 
z"/>
<path fill="#0A0805" opacity="1.000000" stroke="none" 
	d="
M139.024475,140.251709 
	C138.614822,146.768356 138.955765,153.462646 137.598007,159.792557 
	C136.400009,165.377686 131.694809,168.314392 126.176102,166.990494 
	C120.526840,165.635269 115.062080,162.917999 109.985451,159.985245 
	C106.808388,158.149872 107.770561,154.014862 111.456062,153.362762 
	C120.013504,151.848618 126.222107,146.900513 131.783905,140.743393 
	C133.759888,138.555893 135.875732,137.213165 138.837463,140.007172 
	C139.094254,140.328232 139.036514,140.270905 139.024475,140.251709 
M128.975388,150.500015 
	C124.841515,153.037613 120.707642,155.575211 116.633339,158.076233 
	C121.708206,162.209778 127.476852,163.524048 130.780746,161.192780 
	C134.057404,158.880798 135.591034,151.917999 133.966370,146.033188 
	C132.417603,147.431381 130.973236,148.735336 128.975388,150.500015 
z"/>
<path fill="#484C51" opacity="1.000000" stroke="none" 
	d="
M82.058533,166.425430 
	C83.398598,169.195129 84.131248,172.579376 86.193863,174.618042 
	C92.121117,180.476517 93.872849,187.374420 92.995964,195.781097 
	C86.231506,197.146774 85.967407,196.919159 85.938469,190.172699 
	C85.899109,180.993637 81.546783,173.428787 74.458298,170.855286 
	C73.476997,169.674149 72.862061,168.493362 72.097504,167.010101 
	C72.036484,164.524780 72.145294,162.342514 72.209793,160.158951 
	C72.381805,154.335602 72.534744,148.511658 73.131271,142.348877 
	C73.909149,142.011398 74.251022,142.013000 74.639954,142.477737 
	C74.692673,145.096802 74.680054,147.252960 74.707420,149.408615 
	C74.792366,156.099792 75.921921,162.345840 82.058533,166.425430 
z"/>
<path fill="#42474B" opacity="1.000000" stroke="none" 
	d="
M74.592896,142.014618 
	C74.251022,142.013000 73.909149,142.011398 73.311050,142.008224 
	C75.877777,132.712097 83.114723,127.968735 91.709503,124.227539 
	C89.432747,127.249931 86.722092,130.240845 84.202682,133.384995 
	C82.999100,134.887054 82.158478,136.679932 80.671310,138.608841 
	C78.323738,139.922607 76.458321,140.968613 74.592896,142.014618 
z"/>
<path fill="#0A0704" opacity="1.000000" stroke="none" 
	d="
M20.685364,110.473389 
	C20.757246,109.271957 20.875967,108.527573 21.018618,107.407211 
	C22.450911,106.662163 23.859272,106.293098 25.640974,105.947708 
	C31.117390,112.010986 36.830692,116.990387 44.959427,118.695145 
	C48.627403,119.464394 49.166821,122.573708 46.134575,124.811523 
	C41.167816,128.477036 35.843010,131.503616 28.867218,130.635986 
	C22.424753,127.704056 21.081470,122.298401 20.829111,116.321663 
	C20.753311,114.526428 20.762138,112.727623 20.685364,110.473389 
M38.754063,124.362732 
	C39.516514,123.795296 40.278969,123.227859 40.635014,122.962883 
	C35.517155,119.592262 30.458397,116.260567 25.093464,112.727226 
	C24.897642,117.298683 24.259922,122.419968 28.369541,124.977592 
	C30.674774,126.412254 34.800896,124.921089 38.754063,124.362732 
z"/>
<path fill="#EB9D09" opacity="1.000000" stroke="none" 
	d="
M193.385254,125.418831 
	C188.270706,127.738953 184.536118,125.333122 180.957489,123.066505 
	C186.179611,119.622940 191.299789,116.246597 196.419983,112.870255 
	C196.864029,112.975243 197.308075,113.080231 197.752121,113.185211 
	C196.394928,117.184425 195.037720,121.183640 193.385254,125.418831 
z"/>
<path fill="#0B0803" opacity="1.000000" stroke="none" 
	d="
M74.639954,142.477753 
	C76.458321,140.968613 78.323738,139.922607 80.590179,138.948227 
	C86.771843,145.867020 93.194672,151.603302 102.504234,153.295898 
	C106.500923,154.022552 107.351425,157.843628 104.095436,160.231720 
	C97.859360,164.805588 91.248398,168.692719 82.495384,166.559555 
	C75.921921,162.345840 74.792366,156.099792 74.707420,149.408615 
	C74.680054,147.252960 74.692673,145.096802 74.639954,142.477753 
M86.762321,162.291290 
	C90.560593,161.194595 94.358856,160.097900 98.403725,158.930008 
	C91.557648,154.395538 85.734322,150.538498 79.971878,146.721771 
	C78.734589,154.943115 80.540306,159.678375 86.762321,162.291290 
z"/>
<path fill="#ED9E0A" opacity="1.000000" stroke="none" 
	d="
M129.252121,150.269653 
	C130.973236,148.735336 132.417603,147.431381 133.966370,146.033188 
	C135.591034,151.917999 134.057404,158.880798 130.780746,161.192780 
	C127.476852,163.524048 121.708206,162.209778 116.633339,158.076233 
	C120.707642,155.575211 124.841515,153.037613 129.252121,150.269653 
z"/>
<path fill="#ED9E0A" opacity="1.000000" stroke="none" 
	d="
M38.430340,124.555443 
	C34.800896,124.921089 30.674774,126.412254 28.369541,124.977592 
	C24.259922,122.419968 24.897642,117.298683 25.093464,112.727226 
	C30.458397,116.260567 35.517155,119.592262 40.635014,122.962883 
	C40.278969,123.227859 39.516514,123.795296 38.430340,124.555443 
z"/>
<path fill="#F2A10A" opacity="1.000000" stroke="none" 
	d="
M86.350204,162.235962 
	C80.540306,159.678375 78.734589,154.943115 79.971878,146.721771 
	C85.734322,150.538498 91.557648,154.395538 98.403725,158.930008 
	C94.358856,160.097900 90.560593,161.194595 86.350204,162.235962 
z"/>
</svg>